<svg width="214.9190673828125px" height="122px" xmlns="http://www.w3.org/2000/svg" viewBox="142.54046630859375 14 214.9190673828125 122" style="background: rgba(0, 0, 0, 0);" preserveAspectRatio="xMidYMid"><defs><filter id="editing-extrusion" x="-100%" y="-100%" width="300%" height="300%"><feFlood result="color1" flood-color="#444"></feFlood><feConvolveMatrix order="8,8" divisor="1" kernelMatrix="1 0 0 0 0 0 0 0 0 1 0 0 0 0 0 0 0 0 1 0 0 0 0 0 0 0 0 1 0 0 0 0 0 0 0 0 1 0 0 0 0 0 0 0 0 1 0 0 0 0 0 0 0 0 1 0 0 0 0 0 0 0 0 1" in="SourceAlpha" result="extrude"></feConvolveMatrix><feComposite in="color1" in2="extrude" result="comp-extrude" operator="in"></feComposite><feOffset dx="4" dy="4" in="comp-extrude" result="offset-extrude"></feOffset><feMerge><feMergeNode in="offset-extrude"></feMergeNode><feMergeNode in="SourceGraphic"></feMergeNode></feMerge></filter></defs><g filter="url(#editing-extrusion)"><g transform="translate(177.6734014749527, 99)"><path d="M34.50-13.25L34.50-13.25L34.50-13.25Q36.16-12.03 36.16-9.44L36.16-9.44L36.16-9.44Q36.16-6.85 35.04-5.02L35.04-5.02L35.04-5.02Q33.92-3.20 31.74-1.79L31.74-1.79L31.74-1.79Q27.07 1.22 18.91 1.22L18.91 1.22L18.91 1.22Q10.75 1.22 6.30-3.04L6.30-3.04L6.30-3.04Q1.86-7.30 1.86-14.85L1.86-14.85L1.86-14.85Q1.86-25.54 7.42-33.66L7.42-33.66L7.42-33.66Q11.65-39.68 19.20-42.24L19.20-42.24L19.20-42.24Q23.10-43.52 26.94-43.52L26.94-43.52L26.94-43.52Q30.78-43.52 33.15-43.01L33.15-43.01L33.15-43.01Q35.52-42.50 37.31-41.47L37.31-41.47L37.31-41.47Q41.22-39.23 41.22-35.65L41.22-35.65L41.22-35.65Q41.22-32.38 38.14-29.95L38.14-29.95L38.14-29.95Q35.33-27.78 33.02-27.78L33.02-27.78L33.02-27.78Q30.72-27.78 29.76-28.10L29.76-28.10L29.76-28.10Q30.02-30.40 30.02-31.90L30.02-31.90L30.02-31.90Q30.02-33.41 29.95-34.50L29.95-34.50L29.95-34.50Q29.89-35.58 29.57-36.61L29.57-36.61L29.57-36.61Q28.93-38.98 26.98-38.98L26.98-38.98L26.98-38.98Q25.02-38.98 23.07-37.15L23.07-37.15L23.07-37.15Q21.12-35.33 19.46-32.26L19.46-32.26L19.46-32.26Q15.68-25.28 15.68-17.02L15.68-17.02L15.68-17.02Q15.68-13.06 17.92-10.78L17.92-10.78L17.92-10.78Q20.16-8.51 24.96-8.51L24.96-8.51L24.96-8.51Q28.54-8.51 31.94-10.88L31.94-10.88L31.94-10.88Q33.41-11.90 34.50-13.25ZM73.66-7.10L73.66-7.10L73.66-7.10Q73.66-4.29 76.54-3.46L76.54-3.46L76.54-3.46Q75.84-1.09 73.09 0.19L73.09 0.19L73.09 0.19Q70.78 1.28 68.26 1.28L68.26 1.28L68.26 1.28Q65.73 1.28 64.42 0.61L64.42 0.61L64.42 0.61Q63.10-0.06 62.40-1.15L62.40-1.15L62.40-1.15Q61.25-2.82 61.25-5.95L61.25-5.95L61.25-5.95Q61.25-7.81 62.27-12.93L62.27-12.93L63.17-17.79L63.17-17.79Q64.26-23.36 64.26-25.41L64.26-25.41L64.26-25.41Q64.26-28.99 62.27-28.99L62.27-28.99L62.27-28.99Q59.78-28.99 58.18-25.34L58.18-25.34L58.18-25.34Q57.54-23.94 57.09-21.82L57.09-21.82L52.74 0L39.87 1.28L48.90-44.80L61.76-46.08L61.25-43.52L61.25-43.52Q59.46-33.66 57.92-30.34L57.92-30.34L57.92-30.34Q61.50-33.92 68.10-33.92L68.10-33.92L68.10-33.92Q75.07-33.92 76.35-29.31L76.35-29.31L76.35-29.31Q76.80-27.84 76.80-26.56L76.80-26.56L76.80-26.56Q76.80-25.28 76.70-24.29L76.70-24.29L76.70-24.29Q76.61-23.30 76.29-21.50L76.29-21.50L75.46-16.90L73.98-9.66L73.98-9.66Q73.66-8.19 73.66-7.10ZM97.09-3.52L97.09-3.52L97.09-3.52Q95.10 1.28 88.77 1.28L88.77 1.28L88.77 1.28Q85.50 1.28 83.46-0.96L83.46-0.96L83.46-0.96Q81.73-2.94 81.73-4.93L81.73-4.93L81.73-4.93Q81.73-10.11 84.10-20.22L84.10-20.22L86.46-32.64L99.46-33.92L95.55-13.70L95.55-13.70Q94.46-8.96 94.46-7.30L94.46-7.30L94.46-7.30Q94.46-3.65 97.09-3.52ZM87.62-41.54L87.62-41.54L87.62-41.54Q87.62-44.03 89.70-45.38L89.70-45.38L89.70-45.38Q91.78-46.72 94.78-46.72L94.78-46.72L94.78-46.72Q97.79-46.72 99.62-45.38L99.62-45.38L99.62-45.38Q101.44-44.03 101.44-41.54L101.44-41.54L101.44-41.54Q101.44-39.04 99.42-37.76L99.42-37.76L99.42-37.76Q97.41-36.48 94.40-36.48L94.40-36.48L94.40-36.48Q91.39-36.48 89.50-37.76L89.50-37.76L89.50-37.76Q87.62-39.04 87.62-41.54ZM117.82-3.52L117.82-3.52L117.82-3.52Q115.84 1.28 109.50 1.28L109.50 1.28L109.50 1.28Q106.30 1.28 104.26-0.96L104.26-0.96L104.26-0.96Q102.59-2.82 102.59-4.93L102.59-4.93L102.59-4.93Q102.59-9.73 104.83-20.22L104.83-20.22L109.50-44.80L122.50-46.08L116.29-13.70L116.29-13.70Q115.20-8.96 115.20-7.30L115.20-7.30L115.20-7.30Q115.20-3.65 117.82-3.52ZM138.56-3.52L138.56-3.52L138.56-3.52Q136.58 1.28 130.24 1.28L130.24 1.28L130.24 1.28Q127.04 1.28 124.99-0.96L124.99-0.96L124.99-0.96Q123.33-2.82 123.33-4.93L123.33-4.93L123.33-4.93Q123.33-9.73 125.57-20.22L125.57-20.22L130.24-44.80L143.23-46.08L137.02-13.70L137.02-13.70Q135.94-8.96 135.94-7.30L135.94-7.30L135.94-7.30Q135.94-3.65 138.56-3.52Z" fill="#ccc"></path></g></g><style>text {
  font-size: 64px;
  font-family: Arial Black;
  dominant-baseline: central;
  text-anchor: middle;
}</style></svg>